<svg xmlns="http://www.w3.org/2000/svg" version="1.1" width="500px" height="500px" style="shape-rendering:geometricPrecision; text-rendering:geometricPrecision; image-rendering:optimizeQuality; fill-rule:evenodd; clip-rule:evenodd" xmlns:xlink="http://www.w3.org/1999/xlink">
<g><path style="opacity:1" fill="#feadd0" d="M 246.5,70.5 C 261.105,70.7161 265.272,77.3828 259,90.5C 232.667,134.167 206.333,177.833 180,221.5C 175.229,226.101 170.062,226.601 164.5,223C 158.502,217.665 158.002,211.831 163,205.5C 189.333,161.833 215.667,118.167 242,74.5C 243.397,72.9297 244.897,71.5964 246.5,70.5 Z"/></g>
<g><path style="opacity:1" fill="#c0fe73" d="M 319.5,85.5 C 331.326,83.8329 336.826,88.8329 336,100.5C 316.836,133.499 297.17,166.165 277,198.5C 276.333,199.5 276.333,200.5 277,201.5C 281.106,209.378 284.939,217.378 288.5,225.5C 276.155,226.718 263.821,226.551 251.5,225C 242.545,220.802 240.378,214.302 245,205.5C 266.333,170.167 287.667,134.833 309,99.5C 311.803,94.1897 315.303,89.5231 319.5,85.5 Z"/></g>
<g><path style="opacity:1" fill="#020304" d="M 162.5,301.5 C 164.082,307.736 165.082,314.07 165.5,320.5C 165.364,339.511 165.697,358.511 166.5,377.5C 161.156,377.666 155.823,377.499 150.5,377C 149.809,375.933 149.309,374.766 149,373.5C 130.889,382.113 118.889,376.78 113,357.5C 112.135,333.192 123.635,323.192 147.5,327.5C 147.56,328.043 147.893,328.376 148.5,328.5C 149.817,322.346 149.817,316.346 148.5,310.5C 148.5,307.167 148.5,303.833 148.5,300.5C 153.672,300.375 158.338,300.708 162.5,301.5 Z"/></g>
<g><path style="opacity:1" fill="#020304" d="M 248.5,304.5 C 258.028,303.665 267.195,304.998 276,308.5C 276.804,313.751 276.637,318.918 275.5,324C 270.354,322.286 265.021,320.786 259.5,319.5C 256.741,319.542 254.075,320.042 251.5,321C 248.461,324.805 249.128,327.805 253.5,330C 259.5,331.667 265.5,333.333 271.5,335C 273.587,335.792 275.421,336.959 277,338.5C 283.617,347.929 284.284,357.929 279,368.5C 276.179,370.322 273.679,372.489 271.5,375C 260.92,377.828 250.253,378.161 239.5,376C 236.72,374.724 234.053,373.224 231.5,371.5C 232.451,366.23 232.785,360.897 232.5,355.5C 239.622,358.388 246.955,360.722 254.5,362.5C 258.029,361.496 261.195,359.829 264,357.5C 264.758,355.231 264.591,353.064 263.5,351C 256.575,348.416 249.575,346.083 242.5,344C 232.132,336.33 229.632,326.497 235,314.5C 238.728,310.06 243.228,306.726 248.5,304.5 Z"/></g>
<g><path style="opacity:1" fill="#010203" d="M 76.5,305.5 C 85.6822,305.173 94.6822,305.507 103.5,306.5C 102.167,311.5 102.167,316.5 103.5,321.5C 93.8333,321.5 84.1667,321.5 74.5,321.5C 74.5,324.5 74.5,327.5 74.5,330.5C 82.8216,331.756 91.1549,331.756 99.5,330.5C 99.5,336.833 99.5,343.167 99.5,349.5C 97.8762,349.64 96.7096,348.973 96,347.5C 89.339,348.319 82.5056,348.652 75.5,348.5C 74.5741,352.094 74.2408,355.76 74.5,359.5C 76.2184,360.224 78.0517,360.891 80,361.5C 84.6664,360.976 89.4997,360.31 94.5,359.5C 97.3892,359.054 100.056,358.054 102.5,356.5C 103.167,356.833 103.833,357.167 104.5,357.5C 105.624,363.448 105.79,369.448 105,375.5C 96.919,376.482 88.7524,376.816 80.5,376.5C 71.8333,376.5 63.1667,376.5 54.5,376.5C 54.5,371.167 54.5,365.833 54.5,360.5C 56.3435,358.721 57.0102,356.388 56.5,353.5C 58.0524,348.725 58.5524,343.725 58,338.5C 57.6174,339.056 57.1174,339.389 56.5,339.5C 55.9132,328.176 55.5798,316.843 55.5,305.5C 62.6447,306.024 69.6447,306.024 76.5,305.5 Z"/></g>
<g><path style="opacity:1" fill="#020304" d="M 379.5,374.5 C 380.179,365.432 380.845,356.265 381.5,347C 380.915,345.698 380.249,344.531 379.5,343.5C 377.641,339.074 374.308,337.574 369.5,339C 367.622,340.543 366.122,342.376 365,344.5C 364.5,355.828 364.333,367.162 364.5,378.5C 358.5,378.5 352.5,378.5 346.5,378.5C 347.787,361.502 347.787,344.502 346.5,327.5C 352.167,327.5 357.833,327.5 363.5,327.5C 363.491,329.308 363.991,330.975 365,332.5C 373.585,324.992 382.585,324.659 392,331.5C 394.991,336.515 396.491,342.015 396.5,348C 395.591,357.809 395.257,367.643 395.5,377.5C 390.167,377.5 384.833,377.5 379.5,377.5C 379.5,376.5 379.5,375.5 379.5,374.5 Z"/></g>
<g><path style="opacity:1" fill="#020305" d="M 404.5,357.5 C 405.32,353.42 405.32,349.753 404.5,346.5C 408.137,333.552 416.803,326.885 430.5,326.5C 435.269,326.795 439.936,327.628 444.5,329C 445.022,329.561 445.355,330.228 445.5,331C 444.923,335.171 444.256,339.338 443.5,343.5C 436.202,338.31 429.036,338.31 422,343.5C 416.968,350.689 417.801,357.189 424.5,363C 426.581,363.869 428.747,364.369 431,364.5C 435.169,363.884 439.002,362.717 442.5,361C 444.247,364.329 445.58,367.829 446.5,371.5C 443.908,374.543 440.575,376.376 436.5,377C 425.822,379.203 416.655,376.37 409,368.5C 406.928,365.029 405.428,361.362 404.5,357.5 Z"/></g>
<g><path style="opacity:1" fill="#020203" d="M 206.5,337.5 C 206.5,334.167 206.5,330.833 206.5,327.5C 212.167,327.5 217.833,327.5 223.5,327.5C 223.733,332.895 223.4,338.228 222.5,343.5C 221.795,351.878 222.128,360.211 223.5,368.5C 223.5,371.5 223.5,374.5 223.5,377.5C 217.833,377.5 212.167,377.5 206.5,377.5C 206.649,376.448 206.483,375.448 206,374.5C 183.657,382.343 173.824,374.343 176.5,350.5C 179.205,351.142 180.538,349.808 180.5,346.5C 180.217,343.258 179.383,342.924 178,345.5C 177.617,344.944 177.117,344.611 176.5,344.5C 175.708,338.87 175.375,333.203 175.5,327.5C 181.167,327.5 186.833,327.5 192.5,327.5C 192.334,337.506 192.5,347.506 193,357.5C 193.163,359.676 193.996,361.509 195.5,363C 198.167,363.667 200.833,363.667 203.5,363C 204.701,362.097 205.535,360.931 206,359.5C 206.282,355.961 206.782,352.461 207.5,349C 206.606,345.224 206.272,341.39 206.5,337.5 Z"/></g>
<g><path style="opacity:1" fill="#020204" d="M 317.5,347.5 C 319.189,344.548 319.855,341.548 319.5,338.5C 320.355,334.932 321.689,331.432 323.5,328C 328.5,327.333 333.5,327.333 338.5,328C 338.833,328.333 339.167,328.667 339.5,329C 337.52,334.068 335.853,339.235 334.5,344.5C 331.768,347.714 329.768,351.381 328.5,355.5C 329.127,356.417 329.461,357.417 329.5,358.5C 326.262,370.73 321.262,382.563 314.5,394C 311.648,395.591 308.648,396.924 305.5,398C 302.106,398.752 298.773,398.585 295.5,397.5C 294.507,392.88 294.173,388.214 294.5,383.5C 300.719,385.096 304.719,382.93 306.5,377C 300.679,362.881 294.846,348.714 289,334.5C 288.186,332.098 288.353,329.765 289.5,327.5C 294.507,328.078 299.507,328.411 304.5,328.5C 307.19,336.635 309.856,344.635 312.5,352.5C 313.5,352.5 314.5,352.5 315.5,352.5C 315.831,350.678 316.498,349.011 317.5,347.5 Z"/></g>
</svg>